<svg xmlns="http://www.w3.org/2000/svg" width="24" height="24" viewBox="0 0 32 32" fill="none">
    <mask id="mask0_1_164" style="mask-type:alpha" maskUnits="userSpaceOnUse" x="0" y="0" width="32" height="32">
        <rect width="32" height="32" fill="#D9D9D9"/>
    </mask>
    <g mask="url(#mask0_1_164)">
        <path d="M15.9999 23.5C16.3777 23.5 16.6946 23.3667 16.9506 23.1C17.2057 22.8333 17.3333 22.5111 17.3333 22.1333C17.3333 21.7556 17.2057 21.4333 16.9506 21.1667C16.6946 20.9 16.3777 20.7667 15.9999 20.7667C15.5999 20.7667 15.2724 20.9 15.0173 21.1667C14.7613 21.4333 14.6333 21.7556 14.6333 22.1333C14.6333 22.5111 14.7613 22.8333 15.0173 23.1C15.2724 23.3667 15.5999 23.5 15.9999 23.5ZM15.0333 18.7H16.9333C16.9333 18.0555 17.0221 17.5387 17.1999 17.1493C17.3777 16.7609 17.7999 16.2333 18.4666 15.5667C19.0666 14.9889 19.5221 14.4498 19.8333 13.9493C20.1444 13.4498 20.2999 12.8667 20.2999 12.2C20.2999 11.0444 19.8888 10.1444 19.0666 9.49999C18.2444 8.85555 17.2666 8.53333 16.1333 8.53333C15.0221 8.53333 14.0999 8.83333 13.3666 9.43333C12.6333 10.0333 12.111 10.7333 11.7999 11.5333L13.5333 12.2C13.6888 11.7778 13.9613 11.3555 14.3506 10.9333C14.739 10.5111 15.3221 10.3 16.0999 10.3C16.8999 10.3 17.4888 10.5164 17.8666 10.9493C18.2444 11.3831 18.4333 11.8555 18.4333 12.3667C18.4333 12.8111 18.2999 13.2222 18.0333 13.6C17.7666 13.9778 17.4333 14.3444 17.0333 14.7C16.1666 15.4778 15.6168 16.1058 15.3839 16.584C15.1501 17.0613 15.0333 17.7667 15.0333 18.7ZM15.9999 28.6667C14.2444 28.6667 12.5999 28.3333 11.0666 27.6667C9.53325 27 8.19414 26.1 7.04925 24.9667C5.90525 23.8333 4.99992 22.4942 4.33325 20.9493C3.66659 19.4053 3.33325 17.7555 3.33325 16C3.33325 14.2444 3.66659 12.5942 4.33325 11.0493C4.99992 9.50533 5.90525 8.16666 7.04925 7.03333C8.19414 5.89999 9.53325 4.99999 11.0666 4.33333C12.5999 3.66666 14.2444 3.33333 15.9999 3.33333C17.7777 3.33333 19.4333 3.66666 20.9666 4.33333C22.4999 4.99999 23.839 5.89999 24.9839 7.03333C26.1279 8.16666 27.0279 9.50533 27.6839 11.0493C28.339 12.5942 28.6666 14.2444 28.6666 16C28.6666 17.7555 28.339 19.4053 27.6839 20.9493C27.0279 22.4942 26.1279 23.8333 24.9839 24.9667C23.839 26.1 22.4999 27 20.9666 27.6667C19.4333 28.3333 17.7777 28.6667 15.9999 28.6667ZM15.9999 26.6667C18.9777 26.6667 21.4999 25.628 23.5666 23.5507C25.6332 21.4724 26.6666 18.9555 26.6666 16C26.6666 13.0444 25.6332 10.5275 23.5666 8.44933C21.4999 6.37199 18.9777 5.33333 15.9999 5.33333C13.0666 5.33333 10.5555 6.37199 8.46658 8.44933C6.3777 10.5275 5.33325 13.0444 5.33325 16C5.33325 18.9555 6.3777 21.4724 8.46658 23.5507C10.5555 25.628 13.0666 26.6667 15.9999 26.6667Z" fill="#676767"/>
    </g>
</svg>